<?xml version="1.0"?><svg width="640" height="480" xmlns="http://www.w3.org/2000/svg" xmlns:xlink="http://www.w3.org/1999/xlink">
 <title>Round turkey clip art</title>
 <defs>
  <symbol id="svg_13">
   <metadata id="svg_12">image/svg+xml</metadata>
   <g id="svg_2" transform="translate(-200.848, -50.5259)">
    <g id="svg_3" transform="matrix(1.33707, 0, 0, 1.33707, -123.391, -17.0306)">
     <path d="m366.072998,116.112633c0,14.103004 -27.662506,25.535774 -61.78595,25.535774c-34.123444,0 -61.78598,-11.43277 -61.78598,-25.535774c0,-14.10302 27.662537,-25.535774 61.78598,-25.535774c34.123444,0 61.78595,11.432755 61.78595,25.535774z" id="svg_11" fill="#000000"/>
     <path id="svg_10" d="m267.5,119.505043c29.242645,16.383553 51.876495,11.24131 72.857147,0.714279l-8.928589,-57.142853c-1.706635,-10.922478 -42.014984,-16.10223 -44.910706,-6.51786l-19.017853,62.946434z" stroke-miterlimit="4" stroke-width="2" stroke="#353535" fill="#000000"/>
     <path id="svg_9" d="m288.261353,61.700771l-12.447723,42.576138l3.889893,2.049118l12.225464,-42.120773l-3.667633,-2.504482z" fill-opacity="0.807843" fill="#4b4b4b"/>
     <path id="svg_8" d="m271.25,107.719322c21.422821,10.344009 46.095764,13.830887 67.142853,1.25l1.964294,11.071426l-5,2.678574l-10.535706,3.928566l-9.642883,2.321426l-8.75,0.892868l-7.5,0l-8.75,-1.428574l-12.321411,-3.75l-8.928589,-4.10714l-1.607117,-1.071426l3.928558,-11.785721z" fill="#266629"/>
     <path d="m331.58905,63.146091c-1.706635,-10.92247 -42.175507,-16.171841 -45.239105,-6.519093c12.76358,10.243431 30.00592,12.367134 45.239105,6.519093z" id="svg_7" fill="#353535"/>
     <path id="svg_6" d="m255.892853,112.362183c-1.091278,2.792656 -1.076859,6.215927 1.17392,8.516678c2.231323,2.280899 4.921997,4.094406 7.816498,5.241508c11.627563,4.608025 23.938812,8.421349 36.298279,10.678398c1.412689,0.25798 2.968994,2.223572 0.555267,2.245178c-18.979279,-1.035355 -49.179688,-7.87262 -54.377884,-20.379684c-1.63797,-3.941032 -0.077499,-9.005577 3.900513,-10.595161c1.731323,-0.691818 6.657272,-2.926788 6.39003,0.273239c-0.121887,1.459915 -1.219543,2.645378 -1.756622,4.019844z" fill-opacity="0.807843" fill="#646464"/>
     <path id="svg_5" d="m279.057373,108.566772l-3.127838,14.543945l19.108093,5.866028l2.157867,-15.451065l-18.138123,-4.958908zm2.563934,3.114677l12.384308,3.628471l-1.701294,9.942009l-12.68454,-4.015518l2.001526,-9.554962z" stroke-width="0.984032px" stroke="#ffe100" fill="#ffe100"/>
     <path id="svg_4" d="m267.5,119.505043c29.242645,16.383553 51.876495,11.24131 72.857147,0.714279l-8.928589,-57.142853c-1.706635,-10.922478 -42.014984,-16.10223 -44.910706,-6.51786l-19.017853,62.946434z" stroke-miterlimit="4" stroke-width="2" stroke="#353535" fill="none"/>
    </g>
   </g>
  </symbol>
  <symbol xmlns:xlink="http://www.w3.org/1999/xlink" id="svg_263">
   <metadata id="svg_262">image/svg+xml</metadata>
   <g id="svg_22" transform="matrix(0.717304, 0, 0, 0.717304, 831.039, -37.0318)" fill="#000000" opacity="0.123867">
    <path id="svg_26" d="m-243.683624,261.016479c-51.276672,-7.642319 -361.548065,107.410004 -461.700714,345.359436c-20.011169,18.028748 5.112549,84.852539 32.712524,69.782593c41.362976,-22.584717 181.524872,-109.464722 204.103516,-129.275269c22.578644,-19.810486 46.35791,-43.385925 66.36908,-61.414703c160.089432,-144.230042 209.792282,-216.809723 158.515594,-224.452057z" stroke-dashoffset="0" stroke-miterlimit="4" stroke-linecap="round" stroke-width="15.000004" fill-rule="nonzero" fill="#000000"/>
    <path id="svg_25" d="m-701.51532,604.441467c-20.01123,18.028748 22.107788,-82.389648 -5.094727,-50.143982c-18.164063,21.531616 -39.81488,83.820313 -58.13324,105.061401c-18.31842,21.241089 30.671143,-113.173828 -16.08606,-26.811157c-12.631653,23.331177 -30.156128,65.485107 -43.506836,84.951416c-13.350708,19.466248 21.809631,-115.790771 -35.778564,30.599426c-7.061523,17.950439 -17.216736,31.726868 -22.324768,44.431274c-5.108032,12.704285 -7.746033,23.094788 -7.504578,30.547974c0.241394,7.453186 3.362183,11.969238 9.77179,12.924438c6.409607,0.955261 16.107971,-1.650024 28.485413,-7.222534c12.377441,-5.57251 75.12561,-17.78949 41.29071,-20.666199c-30.590149,-2.600769 43.421692,-24.534973 65.694702,-37.087219c40.270874,-22.695129 -38.961853,-0.310547 -15.996826,-18.343933c22.965088,-18.033325 122.097412,-63.6521 149.298523,-78.861145c76.364075,-42.697754 -85.003052,15.472717 -57.403015,0.402771c41.362915,-22.584717 -52.498291,15.327698 -32.712524,-69.782532z" stroke-dashoffset="0" stroke-miterlimit="4" stroke-linecap="round" stroke-width="15.000004" fill-rule="nonzero" fill="#000000"/>
    <path id="svg_24" d="m-241.422485,260.964386c-51.276672,-7.642303 -361.548035,107.410034 -461.700684,345.359467c-20.011169,18.028748 22.107788,-82.389648 -5.094666,-50.143982c-18.164124,21.531677 -39.81488,83.820374 -58.133301,105.061462c-18.31842,21.241028 30.671143,-113.173889 -16.08606,-26.811218c-12.631653,23.331177 -30.156128,65.485168 -43.506836,84.951416c-13.350647,19.466309 21.809631,-115.79071 -35.778503,30.599426c-7.061523,17.9505 -17.216797,31.726929 -22.324829,44.431274c-5.108032,12.704346 -7.745972,23.094788 -7.504578,30.548035c0.241394,7.453186 3.362244,11.969116 9.77179,12.924438c6.409607,0.955261 16.107971,-1.650085 28.485413,-7.222595c12.377441,-5.572449 75.12561,-17.78949 41.29071,-20.666199c-30.590149,-2.60083 43.421692,-24.534973 65.694702,-37.087219c40.270874,-22.695068 -38.961853,-0.310547 -15.996826,-18.343872c22.965088,-18.033325 122.097412,-63.6521 149.298584,-78.861206c76.364075,-42.697754 -85.003052,15.472778 -57.403076,0.402832c41.362915,-22.584717 181.524841,-109.464722 204.103485,-129.275269c22.578644,-19.810486 46.35791,-43.385956 66.36908,-61.414703c160.089432,-144.230072 209.792282,-216.809753 158.515594,-224.452087z" stroke-dashoffset="0" stroke-miterlimit="4" stroke-linecap="round" stroke-width="15.000004" stroke="#000000" fill-rule="nonzero" fill="#000000"/>
    <path id="svg_23" d="m-387.060028,374.558533c-34.147766,12.588043 -142.996613,99.192352 -303.086029,243.422424c-160.089417,144.230103 -279.792114,266.421631 -337.271667,333.497864c75.420532,-38.502808 286.529175,-251.285828 446.618591,-395.515869c160.089417,-144.230072 175.908203,-156.929108 193.739105,-181.404419z" stroke-dashoffset="0" stroke-miterlimit="4" stroke-linecap="round" stroke-width="15.000004" stroke="#000000" fill-rule="nonzero" fill="#000000"/>
   </g>
   <g id="svg_15" transform="matrix(0.717304, 0, 0, 0.717304, 825.567, -56.0654)">
    <path id="svg_20" d="m-243.683624,261.016479c-51.276672,-7.642319 -361.548065,107.410004 -461.700714,345.359436c-20.011169,18.028748 5.112549,84.852539 32.712524,69.782593c41.362976,-22.584717 181.524872,-109.464722 204.103516,-129.275269c22.578644,-19.810486 46.35791,-43.385925 66.36908,-61.414703c160.089432,-144.230042 209.792282,-216.809723 158.515594,-224.452057z" stroke-dashoffset="0" stroke-miterlimit="4" stroke-linecap="round" stroke-width="15.000004" fill-rule="nonzero" fill="url(#svg_21)"/>
    <path id="svg_18" d="m-701.51532,604.441467c-20.01123,18.028748 22.107788,-82.389648 -5.094727,-50.143982c-18.164063,21.531616 -39.81488,83.820313 -58.13324,105.061401c-18.31842,21.241089 30.671143,-113.173828 -16.08606,-26.811157c-12.631653,23.331177 -30.156128,65.485107 -43.506836,84.951416c-13.350708,19.466248 21.809631,-115.790771 -35.778564,30.599426c-7.061523,17.950439 -17.216736,31.726868 -22.324768,44.431274c-5.108032,12.704285 -7.746033,23.094788 -7.504578,30.547974c0.241394,7.453186 3.362183,11.969238 9.77179,12.924438c6.409607,0.955261 16.107971,-1.650024 28.485413,-7.222534c12.377441,-5.57251 75.12561,-17.78949 41.29071,-20.666199c-30.590149,-2.600769 43.421692,-24.534973 65.694702,-37.087219c40.270874,-22.695129 -38.961853,-0.310547 -15.996826,-18.343933c22.965088,-18.033325 122.097412,-63.6521 149.298523,-78.861145c76.364075,-42.697754 -85.003052,15.472717 -57.403015,0.402771c41.362915,-22.584717 -52.498291,15.327698 -32.712524,-69.782532z" stroke-dashoffset="0" stroke-miterlimit="4" stroke-linecap="round" stroke-width="15.000004" fill-rule="nonzero" fill="url(#svg_19)"/>
    <path id="svg_17" d="m-241.422485,260.964386c-51.276672,-7.642303 -361.548035,107.410034 -461.700684,345.359467c-20.011169,18.028748 22.107788,-82.389648 -5.094666,-50.143982c-18.164124,21.531677 -39.81488,83.820374 -58.133301,105.061462c-18.31842,21.241028 30.671143,-113.173889 -16.08606,-26.811218c-12.631653,23.331177 -30.156128,65.485168 -43.506836,84.951416c-13.350647,19.466309 21.809631,-115.79071 -35.778503,30.599426c-7.061523,17.9505 -17.216797,31.726929 -22.324829,44.431274c-5.108032,12.704346 -7.745972,23.094788 -7.504578,30.548035c0.241394,7.453186 3.362244,11.969116 9.77179,12.924438c6.409607,0.955261 16.107971,-1.650085 28.485413,-7.222595c12.377441,-5.572449 75.12561,-17.78949 41.29071,-20.666199c-30.590149,-2.60083 43.421692,-24.534973 65.694702,-37.087219c40.270874,-22.695068 -38.961853,-0.310547 -15.996826,-18.343872c22.965088,-18.033325 122.097412,-63.6521 149.298584,-78.861206c76.364075,-42.697754 -85.003052,15.472778 -57.403076,0.402832c41.362915,-22.584717 181.524841,-109.464722 204.103485,-129.275269c22.578644,-19.810486 46.35791,-43.385956 66.36908,-61.414703c160.089432,-144.230072 209.792282,-216.809753 158.515594,-224.452087z" stroke-dashoffset="0" stroke-miterlimit="4" stroke-linecap="round" stroke-width="15.000004" stroke="#000000" fill-rule="nonzero" fill="none"/>
    <path id="svg_16" d="m-387.060028,374.558533c-34.147766,12.588043 -142.996613,99.192352 -303.086029,243.422424c-160.089417,144.230103 -279.792114,266.421631 -337.271667,333.497864c75.420532,-38.502808 286.529175,-251.285828 446.618591,-395.515869c160.089417,-144.230072 175.908203,-156.929108 193.739105,-181.404419z" stroke-dashoffset="0" stroke-miterlimit="4" stroke-linecap="round" stroke-width="15.000004" stroke="#000000" fill-rule="nonzero" fill="#9c9a9a"/>
   </g>
  </symbol>
  <symbol xmlns:xlink="http://www.w3.org/1999/xlink" id="svg_508">
   <title>feather blue black</title>
   <metadata id="svg_507">image/svg+xml</metadata>
   <g id="svg_1">
    <title>Layer 1</title>
    <g id="svg_265">
     <path fill="#ff9307" fill-rule="nonzero" stroke="#070707" stroke-width="10" stroke-linecap="round" stroke-miterlimit="4" stroke-dashoffset="0" d="m562.771545,12.16281c-36.780945,-5.48187 -259.339844,77.045632 -331.179749,247.727693c-14.354095,12.932098 3.667236,60.865082 23.464813,50.055328c29.66983,-16.200104 130.208527,-78.51947 146.404266,-92.729645c16.19577,-14.210144 33.252747,-31.120911 47.606812,-44.053009c114.832764,-103.456795 150.484863,-155.518497 113.703857,-161.000367z" id="svg_269"/>
     <path fill="#ff9307" fill-rule="nonzero" stroke="#070707" stroke-width="10" stroke-linecap="round" stroke-miterlimit="4" stroke-dashoffset="0" d="m234.367065,258.50293c-14.354156,12.932098 15.858002,-59.098419 -3.65448,-35.968475c-13.029144,15.444702 -28.559357,60.124634 -41.699219,75.360962c-13.139862,15.236298 22.000549,-81.180054 -11.538574,-19.23175c-9.06073,16.735535 -21.631119,46.972717 -31.207626,60.935974c-9.576523,13.963226 15.644135,-83.05719 -25.664108,21.949097c-5.065254,12.875916 -12.34964,22.757813 -16.013657,31.870758c-3.664001,9.112793 -5.556259,16.565979 -5.383064,21.91217c0.173164,5.346191 2.41172,8.585571 7.009346,9.270752c4.597633,0.685181 11.554314,-1.183594 20.432709,-5.180786c8.878387,-3.997192 53.887894,-12.760437 29.617981,-14.823914c-21.942429,-1.86554 31.146561,-17.59906 47.123093,-26.602814c28.886444,-16.279327 -27.94751,-0.222778 -11.474609,-13.158173c16.472961,-12.935394 87.580963,-45.657928 107.092438,-56.567444c54.776245,-30.627258 -60.973022,11.098663 -41.175415,0.28891c29.6698,-16.200104 -37.657227,10.994629 -23.464813,-50.055267z" id="svg_268"/>
     <path fill="#ff9307" fill-rule="nonzero" stroke="#070707" stroke-width="10" stroke-linecap="round" stroke-miterlimit="4" stroke-dashoffset="0" d="m564.393494,12.12544c-36.780945,-5.48185 -259.339874,77.045642 -331.179749,247.72774c-14.354095,12.932068 15.858002,-59.09845 -3.654419,-35.968506c-13.029205,15.444763 -28.559387,60.124695 -41.699249,75.361023c-13.139893,15.236267 22.000519,-81.180084 -11.538605,-19.231812c-9.06073,16.735565 -21.631119,46.972778 -31.207626,60.936005c-9.576477,13.963257 15.644135,-83.057129 -25.664063,21.949097c-5.065262,12.875946 -12.349686,22.757843 -16.013687,31.870728c-3.664017,9.112854 -5.556229,16.565979 -5.38308,21.912231c0.173164,5.346191 2.411766,8.58551 7.009361,9.270752c4.597626,0.685181 11.554298,-1.183594 20.432693,-5.180786c8.878387,-3.997131 53.887894,-12.760498 29.617996,-14.823975c-21.942444,-1.865601 31.146545,-17.59903 47.123077,-26.602814c28.886444,-16.279236 -27.94751,-0.222748 -11.474609,-13.158112c16.472961,-12.935394 87.580963,-45.657928 107.092499,-56.567474c54.776245,-30.627258 -60.973053,11.098694 -41.175476,0.288971c29.6698,-16.200104 130.208496,-78.519501 146.404236,-92.729675c16.19577,-14.210144 33.252716,-31.120911 47.606842,-44.053009c114.832764,-103.456825 150.484802,-155.518515 113.703857,-161.000384z" id="svg_267"/>
     <path fill="#ff9307" fill-rule="nonzero" stroke="#070707" stroke-width="10" stroke-linecap="round" stroke-miterlimit="4" stroke-dashoffset="0" d="m459.927124,93.606979c-24.494385,9.029449 -102.572083,71.151077 -217.404846,174.607864c-114.832779,103.456848 -200.696018,191.105286 -241.926328,239.21936c54.09945,-27.618225 205.528516,-180.248322 320.361295,-283.705109c114.832794,-103.456818 126.179657,-112.565887 138.969879,-130.122116z" id="svg_266"/>
    </g>
   </g>
  </symbol>
  <linearGradient id="svg_27">
   <stop offset="0" id="svg_261" stop-color="#4b55ab"/>
   <stop offset="1" id="svg_260" stop-opacity="0" stop-color="#4b55ab"/>
  </linearGradient>
  <linearGradient id="svg_28">
   <stop id="svg_61" offset="0" stop-color="#f8b80c"/>
   <stop id="svg_60" offset="1" stop-color="#f0f40e"/>
  </linearGradient>
  <linearGradient xlink:href="#svg_28" id="svg_21" gradientUnits="userSpaceOnUse" x1="-253.88475" y1="281.86093" x2="-663.67346" y2="604.92065"/>
  <linearGradient xlink:href="#svg_27" id="svg_19" gradientUnits="userSpaceOnUse" x1="-889.95932" y1="692.0309" x2="-590.68197" y2="692.0309"/>
 </defs>
 <metadata id="metadata2492">image/svg+xml</metadata>
 <g>
  <title>Layer 1</title>
  <g id="svg_521">
   <g id="svg_511">
    <use id="svg_264" xlink:href="#svg_263" transform="rotate(3.02911, 386.748, 219.335) matrix(0.239865, 3.72529e-09, -3.72529e-09, 0.239865, -333.257, -168.806)" y="1229.995686" x="2623.033448"/>
    <use id="svg_509" xlink:href="#svg_508" transform="matrix(0.25, 0, 0, 0.25, 0, 0)" y="756" x="1280"/>
    <use xlink:href="#svg_508" transform="matrix(0.25, 0, 0, 0.25, 0, 0)" y="550.34375" x="1192.0625" id="svg_510"/>
   </g>
   <g id="svg_512">
    <g id="svg_516" transform="rotate(-8.66892, 333, 174.5)">
     <use xlink:href="#svg_263" transform="rotate(3.02911, 338.756, 164.628) matrix(0.239865, 3.72529e-09, -3.72529e-09, 0.239865, -333.257, -168.806)" y="1001.921589" x="2422.953858" id="svg_513"/>
     <use xlink:href="#svg_508" transform="matrix(0.25, 0, 0, 0.25, 0, 0)" y="537.171875" x="1084.03125" id="svg_514"/>
     <use xlink:href="#svg_508" transform="matrix(0.25, 0, 0, 0.25, 0, 0)" y="339.515625" x="1004.09375" id="svg_515"/>
    </g>
    <g id="svg_517">
     <use xlink:href="#svg_263" transform="rotate(20.583, 362.032, 274.137) matrix(0.239865, 3.72529e-09, -3.72529e-09, 0.239865, -333.257, -168.806)" y="1458.465443" x="2519.993409" id="svg_518"/>
     <use xlink:href="#svg_508" transform="rotate(17.1426, 370.432, 286.68) matrix(0.295724, 3.72529e-09, -1.86265e-09, 0.201757, -55.1285, 68.2155)" y="823.161728" x="1151.106934" id="svg_519"/>
     <use xlink:href="#svg_508" transform="rotate(45.5742, 375.228, 296.844) matrix(0.25, 0, 0, 0.25, 0, 0)" y="927.723404" x="1212.973938" id="svg_520"/>
    </g>
   </g>
  </g>
  <g id="svg_522">
   <g id="svg_523" transform="rotate(-8.39651, 222.574, 235.062)">
    <use xlink:href="#svg_263" transform="matrix(-0.229001, 0.0135545, 0.0121181, 0.256144, 573.54, -222.788)" y="1275.240192" x="1265.971314" id="svg_524"/>
    <use xlink:href="#svg_508" transform="matrix(-0.239011, 0, 0, 0.267341, 205.26, 364.836)" y="-642.248047" x="-316.412781" id="svg_525"/>
    <use xlink:href="#svg_508" transform="matrix(-0.239011, 0, 0, 0.267341, 205.26, 364.836)" y="-847.904297" x="-404.350281" id="svg_526"/>
   </g>
   <g id="svg_527">
    <g transform="matrix(-0.94512, -0.161179, -0.144099, 1.05715, -376.4, 512.466)" id="svg_528">
     <use xlink:href="#svg_263" transform="rotate(3.02911, -607.788, -419.205) matrix(0.239865, 3.72529e-09, -3.72529e-09, 0.239865, -333.257, -168.806)" y="-1432.084881" x="-1523.200561" id="svg_529"/>
     <use xlink:href="#svg_508" transform="matrix(0.25, 0, 0, 0.25, 0, 0)" y="-1798.159973" x="-2702.146301" id="svg_530"/>
     <use xlink:href="#svg_508" transform="matrix(0.25, 0, 0, 0.25, 0, 0)" y="-1995.816223" x="-2782.083801" id="svg_531"/>
    </g>
    <g id="svg_532">
     <use xlink:href="#svg_263" transform="matrix(-0.214682, 0.0901771, 0.080621, 0.240129, 409.712, -508.121)" y="2238.855762" x="1423.075807" id="svg_533"/>
     <use xlink:href="#svg_508" transform="matrix(-0.270164, 0.0932109, 0.056854, 0.206166, 196.301, 113.365)" y="607.141556" x="-217.941803" id="svg_534"/>
     <use xlink:href="#svg_508" transform="matrix(-0.167304, 0.190923, 0.170691, 0.187134, -13.0438, 119.389)" y="940.579941" x="-468.81012" id="svg_535"/>
    </g>
    <g id="svg_540" transform="rotate(69.3697, 305.002, 142)">
     <use xlink:href="#svg_263" transform="matrix(-0.214682, 0.0901771, 0.080621, 0.240129, 489.233, -651.646)" y="2238.85564" x="1423.075562" id="svg_541"/>
     <use xlink:href="#svg_508" transform="matrix(-0.270164, 0.0932109, 0.056854, 0.206166, 196.301, 113.365)" y="92.975357" x="-620.48941" id="svg_542"/>
     <use xlink:href="#svg_508" transform="matrix(-0.167304, 0.190923, 0.170691, 0.187134, 65.4777, -24.1364)" y="943.567886" x="-471.7388" id="svg_543"/>
    </g>
   </g>
  </g>
  <g id="g2927"/>
  <g id="g4289">
   <path fill="#ff7400" fill-rule="evenodd" stroke="#000000" stroke-width="2.917881" stroke-linecap="round" stroke-miterlimit="4" id="path4112" d="m260.665771,332.717651c-5.204956,0.548645 -4.455475,7.297913 -4.222046,11.288422c-0.06665,10.577484 0.02359,21.154877 0.144806,31.731567c-8.218903,-1.128937 -16.427856,-3.467621 -24.624527,-4.184052c-4.595963,0.582764 -5.535049,8.287354 -0.563309,9.126312c3.187256,1.177734 14.492233,1.378174 12.272247,3.10556c-7.031219,3.353668 -14.829376,5.438202 -21.553375,9.221954c-3.612991,3.70871 1.402634,10.334991 5.764053,7.428955c8.612839,-3.431366 17.142181,-7.086731 25.727432,-10.602112c-0.813477,4.89209 -4.943619,9.468353 -4.077271,14.489777c1.868622,5.075287 9.959167,3.987549 10.112701,-1.881409c2.158966,-5.861725 4.116028,-11.80954 6.223175,-17.69101c7.703705,-3.584412 16.05365,-6.064209 23.524719,-9.940643c3.739868,-3.020691 0.626923,-9.79071 -4.02359,-8.143494c-6.367859,2.390869 -12.638733,5.178467 -18.911011,7.750366c-0.175049,-12.375031 -0.170898,-24.782593 -0.134094,-37.09491c-0.367004,-2.848969 -2.964478,-4.845367 -5.659912,-4.605286z"/>
   <path fill="#ff7400" fill-rule="evenodd" stroke="#000000" stroke-width="2.917881" stroke-linecap="round" stroke-miterlimit="4" id="path4122" d="m337.54364,332.099854c-5.874939,0.815735 -4.904358,8.238525 -4.452789,12.692596c-0.384613,9.62735 -0.04303,19.345764 -0.295074,29.007599c-6.995605,-2.329803 -13.691162,-6.912445 -21.003235,-7.834595c-5.54422,0.695435 -4.024567,9.610657 1.046112,9.631775c6.778534,3.301086 14.900299,5.224792 20.847321,9.378479c2.934753,6.861664 4.133087,14.846558 8.122681,21.061279c3.655334,3.211273 10.396057,-1.600677 7.537598,-6.205902c-1.029541,-4.362396 -6.957825,-13.991791 1.039368,-8.654755c7.913574,2.883362 15.504333,7.199585 23.611969,9.244446c5.297974,0.060059 5.84433,-8.998138 0.482819,-9.407104c-6.831177,-2.836182 -13.662384,-5.672363 -20.493591,-8.508514c5.236755,-1.722504 11.826904,-0.434906 16.335876,-3.959442c3.145325,-3.703064 -1.878601,-9.436584 -5.874451,-7.301025c-7.260406,1.291748 -14.520813,2.583435 -21.781189,3.875183c-0.06897,-13.386414 0.690125,-26.965942 -0.241425,-40.23999c-0.849396,-1.879303 -2.927399,-2.985657 -4.881989,-2.780029z"/>
   <path fill="#822c15" fill-rule="nonzero" stroke="#000000" stroke-width="4" stroke-linecap="round" stroke-linejoin="round" stroke-miterlimit="4" id="path4124" d="m393.312225,272.318359c0.015472,54.372101 -42.084625,98.458008 -94.023163,98.458008c-51.938522,0 -94.038651,-44.085907 -94.023163,-98.458008c-0.015488,-54.372086 42.084641,-98.457977 94.023163,-98.457977c51.938538,0 94.038635,44.085892 94.023163,98.457977z"/>
   <path fill="#000000" fill-opacity="0.313725" fill-rule="nonzero" stroke-width="4" stroke-linecap="round" stroke-linejoin="round" stroke-miterlimit="4" id="path4126" d="m387.627869,238.548584c0.065918,1.511078 0.1073,3.049179 0.1073,4.577194c0,54.332596 -42.117676,98.423691 -94.018463,98.423691c-40.568481,0 -75.185745,-26.957062 -88.358582,-64.67038c2.27771,52.218994 43.49678,93.874573 93.937988,93.874573c51.900787,0 94.018463,-44.091125 94.018463,-98.423706c0,-11.863342 -2.007019,-23.246552 -5.686707,-33.781372z"/>
   <path fill="#822c15" fill-rule="nonzero" stroke="#000000" stroke-width="2.715711" stroke-linecap="round" stroke-linejoin="round" stroke-miterlimit="4" d="m361.407257,211.164978c0.010529,36.914719 -28.572418,66.845825 -63.83493,66.845825c-35.262512,0 -63.845459,-29.931107 -63.83493,-66.845825c-0.010529,-36.914719 28.572418,-66.845856 63.83493,-66.845856c35.262512,0 63.845459,29.931137 63.83493,66.845856z" id="path4132"/>
   <path fill="#000000" fill-opacity="0.313725" fill-rule="nonzero" stroke-width="4" stroke-linecap="round" stroke-linejoin="round" stroke-miterlimit="4" d="m360.009003,188.507797l-1.498016,2.386902c0.199036,2.763596 0.275024,5.573593 0.275024,8.42421c0,40.593094 -38.669006,74.283081 -65.393005,69.866089c-22.252899,-3.677002 -48.816498,-17.669006 -60.774109,-47.176697c6.085007,36.164703 45.681305,62.967712 64.61911,62.75769c41.985992,-0.459991 65.392975,-31.570984 65.392975,-72.164795c0,-8.439087 -0.858978,-16.543198 -2.621979,-24.093399l0,0z" id="path4146"/>
   <path fill="#ff0000" fill-rule="evenodd" stroke="#000000" stroke-width="2.7" stroke-linecap="round" stroke-linejoin="round" stroke-miterlimit="4" d="m279.57724,243.769318l15.821625,39.014862l17.394684,-35.029816c-6.025116,-15.917664 -24.285004,-17.931107 -33.216309,-3.985046z" id="path4148"/>
   <path fill="#ffce00" fill-rule="evenodd" stroke="#000000" stroke-width="3.098956" stroke-linecap="round" stroke-linejoin="round" stroke-miterlimit="4" id="path4150" d="m275.560272,232.336319l10.910919,45.315842l27.974609,-32.669067c-3.937622,-18.379303 -25.350433,-25.143951 -38.885529,-12.646774z"/>
   <path fill="#ff0000" fill-rule="evenodd" stroke="#000000" stroke-width="2.552348" stroke-linecap="round" stroke-linejoin="round" stroke-miterlimit="4" id="path4152" d="m324.583618,271.489166c-0.585938,-16.747726 -10.219666,-27.074799 -15.93634,-40.181595c2.858978,15.951645 4.834534,27.825851 -0.873993,40.195999c-14.986786,32.475647 18.130341,37.714081 16.810333,-0.014404z"/>
   <use id="svg_14" xlink:href="#svg_13" transform="matrix(0.968386, 0, 0, 0.968386, 0, 0)" y="81.579039" x="224.084198"/>
   <g id="g4134">
    <path fill="#ffffff" fill-rule="nonzero" stroke="#000000" stroke-width="2.709584" stroke-linecap="round" stroke-linejoin="round" stroke-miterlimit="4" id="path4136" d="m341.428833,199.848145c0.002991,10.569595 -8.18103,19.139587 -18.277527,19.139587c-10.096497,0 -18.280487,-8.569992 -18.277466,-19.139587c-0.003021,-10.56958 8.180969,-19.139587 18.277466,-19.139587c10.096497,0 18.280518,8.570007 18.277527,19.139587z"/>
    <path fill="#000000" fill-rule="nonzero" stroke-width="47.666691" stroke-linecap="round" stroke-linejoin="round" stroke-miterlimit="4" id="path4138" d="m325.182159,203.225311c0.001007,3.523178 -2.72699,6.379852 -6.092499,6.379852c-3.365479,0 -6.093506,-2.856674 -6.092499,-6.379852c-0.001007,-3.523209 2.72702,-6.379868 6.092499,-6.379868c3.365509,0 6.093506,2.856659 6.092499,6.379868z"/>
   </g>
   <g id="g4140">
    <path fill="#ffffff" fill-rule="nonzero" stroke="#000000" stroke-width="2.709584" stroke-linecap="round" stroke-linejoin="round" stroke-miterlimit="4" id="path4142" d="m291.480621,200.848145c0.003021,10.569595 -8.181,19.139587 -18.277496,19.139587c-10.096527,0 -18.280502,-8.569992 -18.277496,-19.139587c-0.003006,-10.56958 8.180969,-19.139587 18.277496,-19.139587c10.096497,0 18.280518,8.570007 18.277496,19.139587z"/>
    <path fill="#000000" fill-rule="nonzero" stroke-width="47.666691" stroke-linecap="round" stroke-linejoin="round" stroke-miterlimit="4" id="path4144" d="m283.86499,204.225311c0.001007,3.523178 -2.72699,6.379852 -6.092499,6.379852c-3.365509,0 -6.093475,-2.856674 -6.092499,-6.379852c-0.000977,-3.523209 2.72699,-6.379868 6.092499,-6.379868c3.365509,0 6.093506,2.856659 6.092499,6.379868z"/>
   </g>
  </g>
 </g>
</svg>